<mxfile host="app.diagrams.net" modified="2023-12-01T12:57:37.483Z" agent="Mozilla/5.0 (Windows NT 10.0; Win64; x64) AppleWebKit/537.36 (KHTML, like Gecko) Chrome/119.0.0.0 Safari/537.36" etag="4DJrglnPN1rPE3NjlbAF" version="22.1.5" type="google">
  <diagram id="C5RBs43oDa-KdzZeNtuy" name="Page-1">
    <mxGraphModel grid="1" page="1" gridSize="10" guides="1" tooltips="1" connect="1" arrows="1" fold="1" pageScale="1" pageWidth="827" pageHeight="1169" math="0" shadow="0">
      <root>
        <mxCell id="WIyWlLk6GJQsqaUBKTNV-0" />
        <mxCell id="WIyWlLk6GJQsqaUBKTNV-1" parent="WIyWlLk6GJQsqaUBKTNV-0" />
        <mxCell id="zkfFHV4jXpPFQw0GAbJ--0" value="Car&#xa;{abstract}" style="swimlane;fontStyle=2;align=center;verticalAlign=top;childLayout=stackLayout;horizontal=1;startSize=40;horizontalStack=0;resizeParent=1;resizeLast=0;collapsible=1;marginBottom=0;rounded=0;shadow=0;strokeWidth=1;" vertex="1" parent="WIyWlLk6GJQsqaUBKTNV-1">
          <mxGeometry x="220" y="180" width="170" height="450" as="geometry">
            <mxRectangle x="230" y="140" width="160" height="26" as="alternateBounds" />
          </mxGeometry>
        </mxCell>
        <mxCell id="zkfFHV4jXpPFQw0GAbJ--2" value="- onTruck: boolean&#xa;- canMove: boolean&#xa;- Direction: int&#xa;- Xpos: int &#xa;- Ypos: int&#xa;- nrDoors: int&#xa;- enginePower: double&#xa;- currentSpeed: double&#xa;- color: Color&#xa;- modelName: String&#xa;- turboON: boolean&#xa;- trimFactor: double&#xa;&#xa;&#xa;" style="text;align=left;verticalAlign=top;spacingLeft=4;spacingRight=4;overflow=hidden;rotatable=0;points=[[0,0.5],[1,0.5]];portConstraint=eastwest;rounded=0;shadow=0;html=0;" vertex="1" parent="zkfFHV4jXpPFQw0GAbJ--0">
          <mxGeometry y="40" width="170" height="200" as="geometry" />
        </mxCell>
        <mxCell id="zkfFHV4jXpPFQw0GAbJ--4" value="" style="line;html=1;strokeWidth=1;align=left;verticalAlign=middle;spacingTop=-1;spacingLeft=3;spacingRight=3;rotatable=0;labelPosition=right;points=[];portConstraint=eastwest;" vertex="1" parent="zkfFHV4jXpPFQw0GAbJ--0">
          <mxGeometry y="240" width="170" height="30" as="geometry" />
        </mxCell>
        <mxCell id="zkfFHV4jXpPFQw0GAbJ--5" value="+ Car(nrDoors, enginePower,&#xa; color, modelName): void&#xa;+ startEngine(): void&#xa;+stopEngine(): void&#xa;+ getCurrentSpeed: void&#xa;+ setTrimFactor(double trim):&#xa;double&#xa;+getTrimFactor():double&#xa;+ speedFactor(): double&#xa;+ gas(double amount): void&#xa;+ break(double amount): void" style="text;align=left;verticalAlign=top;spacingLeft=4;spacingRight=4;overflow=hidden;rotatable=0;points=[[0,0.5],[1,0.5]];portConstraint=eastwest;" vertex="1" parent="zkfFHV4jXpPFQw0GAbJ--0">
          <mxGeometry y="270" width="170" height="170" as="geometry" />
        </mxCell>
        <mxCell id="-Scuf54vddxRZD9NTPhX-41" style="edgeStyle=orthogonalEdgeStyle;rounded=0;orthogonalLoop=1;jettySize=auto;html=1;exitX=0.5;exitY=0;exitDx=0;exitDy=0;entryX=0.5;entryY=1;entryDx=0;entryDy=0;endArrow=block;endFill=0;" edge="1" parent="WIyWlLk6GJQsqaUBKTNV-1" source="zkfFHV4jXpPFQw0GAbJ--6" target="zkfFHV4jXpPFQw0GAbJ--0">
          <mxGeometry relative="1" as="geometry" />
        </mxCell>
        <mxCell id="zkfFHV4jXpPFQw0GAbJ--6" value="Volvo" style="swimlane;fontStyle=0;align=center;verticalAlign=top;childLayout=stackLayout;horizontal=1;startSize=26;horizontalStack=0;resizeParent=1;resizeLast=0;collapsible=1;marginBottom=0;rounded=0;shadow=0;strokeWidth=1;" vertex="1" parent="WIyWlLk6GJQsqaUBKTNV-1">
          <mxGeometry x="130" y="810" width="160" height="56" as="geometry">
            <mxRectangle x="130" y="380" width="160" height="26" as="alternateBounds" />
          </mxGeometry>
        </mxCell>
        <mxCell id="zkfFHV4jXpPFQw0GAbJ--10" value="+ speedFactor(): double" style="text;align=left;verticalAlign=top;spacingLeft=4;spacingRight=4;overflow=hidden;rotatable=0;points=[[0,0.5],[1,0.5]];portConstraint=eastwest;fontStyle=4" vertex="1" parent="zkfFHV4jXpPFQw0GAbJ--6">
          <mxGeometry y="26" width="160" height="26" as="geometry" />
        </mxCell>
        <mxCell id="-Scuf54vddxRZD9NTPhX-62" style="edgeStyle=orthogonalEdgeStyle;rounded=0;orthogonalLoop=1;jettySize=auto;html=1;exitX=0.75;exitY=0;exitDx=0;exitDy=0;endArrow=block;endFill=0;" edge="1" parent="WIyWlLk6GJQsqaUBKTNV-1" source="-Scuf54vddxRZD9NTPhX-0" target="-Scuf54vddxRZD9NTPhX-4">
          <mxGeometry relative="1" as="geometry" />
        </mxCell>
        <mxCell id="-Scuf54vddxRZD9NTPhX-0" value="Scania" style="swimlane;fontStyle=1;align=center;verticalAlign=top;childLayout=stackLayout;horizontal=1;startSize=26;horizontalStack=0;resizeParent=1;resizeParentMax=0;resizeLast=0;collapsible=1;marginBottom=0;whiteSpace=wrap;html=1;" vertex="1" parent="WIyWlLk6GJQsqaUBKTNV-1">
          <mxGeometry x="-510" y="780" width="160" height="180" as="geometry" />
        </mxCell>
        <mxCell id="-Scuf54vddxRZD9NTPhX-1" value="- angle: int&lt;br&gt;- maxAngle: int&lt;br&gt;- minAngle: int" style="text;strokeColor=none;fillColor=none;align=left;verticalAlign=top;spacingLeft=4;spacingRight=4;overflow=hidden;rotatable=0;points=[[0,0.5],[1,0.5]];portConstraint=eastwest;whiteSpace=wrap;html=1;" vertex="1" parent="-Scuf54vddxRZD9NTPhX-0">
          <mxGeometry y="26" width="160" height="64" as="geometry" />
        </mxCell>
        <mxCell id="-Scuf54vddxRZD9NTPhX-2" value="" style="line;strokeWidth=1;fillColor=none;align=left;verticalAlign=middle;spacingTop=-1;spacingLeft=3;spacingRight=3;rotatable=0;labelPosition=right;points=[];portConstraint=eastwest;strokeColor=inherit;" vertex="1" parent="-Scuf54vddxRZD9NTPhX-0">
          <mxGeometry y="90" width="160" height="8" as="geometry" />
        </mxCell>
        <mxCell id="-Scuf54vddxRZD9NTPhX-3" value="+ getangle(): int&lt;br&gt;+ setangle(int degree): void&lt;br&gt;+ carrierHigher(): void&lt;br&gt;+ carrierLower(): void&lt;br&gt;+ getCanMove(): boolean&lt;br&gt;" style="text;strokeColor=none;fillColor=none;align=left;verticalAlign=top;spacingLeft=4;spacingRight=4;overflow=hidden;rotatable=0;points=[[0,0.5],[1,0.5]];portConstraint=eastwest;whiteSpace=wrap;html=1;" vertex="1" parent="-Scuf54vddxRZD9NTPhX-0">
          <mxGeometry y="98" width="160" height="82" as="geometry" />
        </mxCell>
        <mxCell id="-Scuf54vddxRZD9NTPhX-45" style="edgeStyle=orthogonalEdgeStyle;rounded=0;orthogonalLoop=1;jettySize=auto;html=1;exitX=0.5;exitY=0;exitDx=0;exitDy=0;entryX=0.5;entryY=1;entryDx=0;entryDy=0;endArrow=block;endFill=0;" edge="1" parent="WIyWlLk6GJQsqaUBKTNV-1" source="-Scuf54vddxRZD9NTPhX-4" target="zkfFHV4jXpPFQw0GAbJ--0">
          <mxGeometry relative="1" as="geometry" />
        </mxCell>
        <mxCell id="-Scuf54vddxRZD9NTPhX-4" value="Truck&lt;br&gt;{abstract}" style="swimlane;fontStyle=1;align=center;verticalAlign=top;childLayout=stackLayout;horizontal=1;startSize=40;horizontalStack=0;resizeParent=1;resizeParentMax=0;resizeLast=0;collapsible=1;marginBottom=0;whiteSpace=wrap;html=1;" vertex="1" parent="WIyWlLk6GJQsqaUBKTNV-1">
          <mxGeometry x="-180" y="600" width="160" height="40" as="geometry">
            <mxRectangle x="-180" y="600" width="100" height="40" as="alternateBounds" />
          </mxGeometry>
        </mxCell>
        <mxCell id="-Scuf54vddxRZD9NTPhX-63" style="edgeStyle=orthogonalEdgeStyle;rounded=0;orthogonalLoop=1;jettySize=auto;html=1;exitX=0.25;exitY=0;exitDx=0;exitDy=0;endArrow=block;endFill=0;" edge="1" parent="WIyWlLk6GJQsqaUBKTNV-1" source="-Scuf54vddxRZD9NTPhX-9">
          <mxGeometry relative="1" as="geometry">
            <mxPoint x="-100" y="640" as="targetPoint" />
          </mxGeometry>
        </mxCell>
        <mxCell id="-Scuf54vddxRZD9NTPhX-9" value="Cartransport" style="swimlane;fontStyle=1;align=center;verticalAlign=top;childLayout=stackLayout;horizontal=1;startSize=26;horizontalStack=0;resizeParent=1;resizeParentMax=0;resizeLast=0;collapsible=1;marginBottom=0;whiteSpace=wrap;html=1;" vertex="1" parent="WIyWlLk6GJQsqaUBKTNV-1">
          <mxGeometry x="-90" y="780" width="160" height="210" as="geometry" />
        </mxCell>
        <mxCell id="-Scuf54vddxRZD9NTPhX-10" value="- carrierPos: boolean" style="text;strokeColor=none;fillColor=none;align=left;verticalAlign=top;spacingLeft=4;spacingRight=4;overflow=hidden;rotatable=0;points=[[0,0.5],[1,0.5]];portConstraint=eastwest;whiteSpace=wrap;html=1;" vertex="1" parent="-Scuf54vddxRZD9NTPhX-9">
          <mxGeometry y="26" width="160" height="26" as="geometry" />
        </mxCell>
        <mxCell id="-Scuf54vddxRZD9NTPhX-11" value="" style="line;strokeWidth=1;fillColor=none;align=left;verticalAlign=middle;spacingTop=-1;spacingLeft=3;spacingRight=3;rotatable=0;labelPosition=right;points=[];portConstraint=eastwest;strokeColor=inherit;" vertex="1" parent="-Scuf54vddxRZD9NTPhX-9">
          <mxGeometry y="52" width="160" height="8" as="geometry" />
        </mxCell>
        <mxCell id="-Scuf54vddxRZD9NTPhX-12" value="+ getRamparraylist(): ArrayList&amp;lt;Car&amp;gt;&lt;br&gt;+ getCanMove(): boolean&lt;br&gt;+ addcar(Car smallcar):void&lt;br&gt;+ getcarsoncarrier(): int&lt;br&gt;+ removecar(): void&lt;br&gt;+ carrierHigher(): void&lt;br&gt;+ carroerLower(): void&lt;br&gt;+ move(): void" style="text;strokeColor=none;fillColor=none;align=left;verticalAlign=top;spacingLeft=4;spacingRight=4;overflow=hidden;rotatable=0;points=[[0,0.5],[1,0.5]];portConstraint=eastwest;whiteSpace=wrap;html=1;" vertex="1" parent="-Scuf54vddxRZD9NTPhX-9">
          <mxGeometry y="60" width="160" height="150" as="geometry" />
        </mxCell>
        <mxCell id="-Scuf54vddxRZD9NTPhX-30" value="&lt;p style=&quot;margin:0px;margin-top:4px;text-align:center;&quot;&gt;&lt;i&gt;&amp;lt;&amp;lt;Interface&amp;gt;&amp;gt;&lt;/i&gt;&lt;br&gt;&lt;b&gt;Moveable&lt;/b&gt;&lt;/p&gt;&lt;hr size=&quot;1&quot;&gt;&lt;p style=&quot;margin:0px;margin-left:4px;&quot;&gt;+ move(): void&lt;br&gt;+ turnleft(): void&lt;/p&gt;&lt;p style=&quot;margin:0px;margin-left:4px;&quot;&gt;+ turnright(): void&lt;/p&gt;" style="verticalAlign=top;align=left;overflow=fill;fontSize=12;fontFamily=Helvetica;html=1;whiteSpace=wrap;" vertex="1" parent="WIyWlLk6GJQsqaUBKTNV-1">
          <mxGeometry x="20" y="40" width="190" height="100" as="geometry" />
        </mxCell>
        <mxCell id="-Scuf54vddxRZD9NTPhX-32" value="" style="endArrow=block;dashed=1;endFill=0;endSize=12;html=1;rounded=0;exitX=0.5;exitY=0;exitDx=0;exitDy=0;entryX=0.5;entryY=1;entryDx=0;entryDy=0;" edge="1" parent="WIyWlLk6GJQsqaUBKTNV-1" source="PPLYrk64f-NC93bYanYv-14" target="-Scuf54vddxRZD9NTPhX-30">
          <mxGeometry width="160" relative="1" as="geometry">
            <mxPoint x="40" y="160" as="sourcePoint" />
            <mxPoint x="200" y="160" as="targetPoint" />
          </mxGeometry>
        </mxCell>
        <mxCell id="-Scuf54vddxRZD9NTPhX-61" style="edgeStyle=orthogonalEdgeStyle;rounded=0;orthogonalLoop=1;jettySize=auto;html=1;exitX=0.5;exitY=0;exitDx=0;exitDy=0;entryX=0.5;entryY=1;entryDx=0;entryDy=0;endArrow=block;endFill=0;" edge="1" parent="WIyWlLk6GJQsqaUBKTNV-1" source="-Scuf54vddxRZD9NTPhX-53" target="zkfFHV4jXpPFQw0GAbJ--0">
          <mxGeometry relative="1" as="geometry">
            <mxPoint x="410" y="760" as="targetPoint" />
          </mxGeometry>
        </mxCell>
        <mxCell id="-Scuf54vddxRZD9NTPhX-53" value="Saab95" style="swimlane;fontStyle=0;align=center;verticalAlign=top;childLayout=stackLayout;horizontal=1;startSize=26;horizontalStack=0;resizeParent=1;resizeLast=0;collapsible=1;marginBottom=0;rounded=0;shadow=0;strokeWidth=1;" vertex="1" parent="WIyWlLk6GJQsqaUBKTNV-1">
          <mxGeometry x="320" y="810" width="160" height="78" as="geometry">
            <mxRectangle x="130" y="380" width="160" height="26" as="alternateBounds" />
          </mxGeometry>
        </mxCell>
        <mxCell id="-Scuf54vddxRZD9NTPhX-58" value="+ setTurboOn(): void&lt;br style=&quot;border-color: var(--border-color); padding: 0px; margin: 0px;&quot;&gt;+ setTurboOff(): void&lt;br style=&quot;border-color: var(--border-color); padding: 0px; margin: 0px;&quot;&gt;+ speedFactor(): double&lt;div style=&quot;border-color: var(--border-color); padding: 0px; margin: 0px;&quot;&gt;&lt;br style=&quot;border-color: var(--border-color); padding: 0px; margin: 0px; color: rgb(0, 0, 0); font-family: Helvetica; font-size: 12px; font-style: normal; font-variant-ligatures: normal; font-variant-caps: normal; font-weight: 400; letter-spacing: normal; orphans: 2; text-align: left; text-indent: 0px; text-transform: none; widows: 2; word-spacing: 0px; -webkit-text-stroke-width: 0px; background-color: rgb(251, 251, 251); text-decoration-thickness: initial; text-decoration-style: initial; text-decoration-color: initial;&quot;&gt;&#xa;&#xa;&lt;/div&gt;" style="text;whiteSpace=wrap;html=1;" vertex="1" parent="-Scuf54vddxRZD9NTPhX-53">
          <mxGeometry y="26" width="160" height="50" as="geometry" />
        </mxCell>
        <mxCell id="-Scuf54vddxRZD9NTPhX-68" style="edgeStyle=orthogonalEdgeStyle;rounded=0;orthogonalLoop=1;jettySize=auto;html=1;exitX=0.5;exitY=0;exitDx=0;exitDy=0;entryX=0;entryY=0.5;entryDx=0;entryDy=0;endArrow=block;endFill=0;" edge="1" parent="WIyWlLk6GJQsqaUBKTNV-1" source="-Scuf54vddxRZD9NTPhX-64" target="zkfFHV4jXpPFQw0GAbJ--2">
          <mxGeometry relative="1" as="geometry" />
        </mxCell>
        <mxCell id="-Scuf54vddxRZD9NTPhX-64" value="Workshop" style="swimlane;fontStyle=1;align=center;verticalAlign=top;childLayout=stackLayout;horizontal=1;startSize=26;horizontalStack=0;resizeParent=1;resizeParentMax=0;resizeLast=0;collapsible=1;marginBottom=0;whiteSpace=wrap;html=1;" vertex="1" parent="WIyWlLk6GJQsqaUBKTNV-1">
          <mxGeometry x="-370" y="290" width="160" height="128" as="geometry" />
        </mxCell>
        <mxCell id="-Scuf54vddxRZD9NTPhX-65" value="- listAllCars(): ArrayList&amp;lt;Car&amp;gt;" style="text;strokeColor=none;fillColor=none;align=left;verticalAlign=top;spacingLeft=4;spacingRight=4;overflow=hidden;rotatable=0;points=[[0,0.5],[1,0.5]];portConstraint=eastwest;whiteSpace=wrap;html=1;" vertex="1" parent="-Scuf54vddxRZD9NTPhX-64">
          <mxGeometry y="26" width="160" height="34" as="geometry" />
        </mxCell>
        <mxCell id="-Scuf54vddxRZD9NTPhX-66" value="" style="line;strokeWidth=1;fillColor=none;align=left;verticalAlign=middle;spacingTop=-1;spacingLeft=3;spacingRight=3;rotatable=0;labelPosition=right;points=[];portConstraint=eastwest;strokeColor=inherit;" vertex="1" parent="-Scuf54vddxRZD9NTPhX-64">
          <mxGeometry y="60" width="160" height="8" as="geometry" />
        </mxCell>
        <mxCell id="-Scuf54vddxRZD9NTPhX-67" value="+ addcar(T wagon): void&lt;br&gt;+ returnCars(T wagon): void&lt;br&gt;+ listOfCars(): int" style="text;strokeColor=none;fillColor=none;align=left;verticalAlign=top;spacingLeft=4;spacingRight=4;overflow=hidden;rotatable=0;points=[[0,0.5],[1,0.5]];portConstraint=eastwest;whiteSpace=wrap;html=1;" vertex="1" parent="-Scuf54vddxRZD9NTPhX-64">
          <mxGeometry y="68" width="160" height="60" as="geometry" />
        </mxCell>
        <mxCell id="-Scuf54vddxRZD9NTPhX-73" style="edgeStyle=orthogonalEdgeStyle;rounded=0;orthogonalLoop=1;jettySize=auto;html=1;exitX=0.5;exitY=0;exitDx=0;exitDy=0;dashed=1;endArrow=open;endFill=0;" edge="1" parent="WIyWlLk6GJQsqaUBKTNV-1" source="-Scuf54vddxRZD9NTPhX-69" target="zkfFHV4jXpPFQw0GAbJ--2">
          <mxGeometry relative="1" as="geometry" />
        </mxCell>
        <mxCell id="-Scuf54vddxRZD9NTPhX-69" value="CarController" style="swimlane;fontStyle=1;align=center;verticalAlign=top;childLayout=stackLayout;horizontal=1;startSize=26;horizontalStack=0;resizeParent=1;resizeParentMax=0;resizeLast=0;collapsible=1;marginBottom=0;whiteSpace=wrap;html=1;" vertex="1" parent="WIyWlLk6GJQsqaUBKTNV-1">
          <mxGeometry x="600" y="190" width="160" height="230" as="geometry" />
        </mxCell>
        <mxCell id="-Scuf54vddxRZD9NTPhX-70" value="- delay: final int&lt;br&gt;- timer: Timer&lt;br&gt;- frame: Carview&lt;br&gt;- cars: Arraylist&amp;lt;Car&amp;gt;&amp;nbsp;" style="text;strokeColor=none;fillColor=none;align=left;verticalAlign=top;spacingLeft=4;spacingRight=4;overflow=hidden;rotatable=0;points=[[0,0.5],[1,0.5]];portConstraint=eastwest;whiteSpace=wrap;html=1;" vertex="1" parent="-Scuf54vddxRZD9NTPhX-69">
          <mxGeometry y="26" width="160" height="64" as="geometry" />
        </mxCell>
        <mxCell id="-Scuf54vddxRZD9NTPhX-71" value="" style="line;strokeWidth=1;fillColor=none;align=left;verticalAlign=middle;spacingTop=-1;spacingLeft=3;spacingRight=3;rotatable=0;labelPosition=right;points=[];portConstraint=eastwest;strokeColor=inherit;" vertex="1" parent="-Scuf54vddxRZD9NTPhX-69">
          <mxGeometry y="90" width="160" height="8" as="geometry" />
        </mxCell>
        <mxCell id="-Scuf54vddxRZD9NTPhX-72" value="+ actionPerformed&lt;br&gt;(ActionEvent e): void&lt;br&gt;+ gas(int amount): void&lt;br&gt;+ brake(int amount): void&lt;br&gt;+ turboOn(): void&lt;br&gt;+ turboOff(): void&lt;br&gt;+ lowerBed(): void&lt;br&gt;+ higherbed(): void&lt;br&gt;" style="text;strokeColor=none;fillColor=none;align=left;verticalAlign=top;spacingLeft=4;spacingRight=4;overflow=hidden;rotatable=0;points=[[0,0.5],[1,0.5]];portConstraint=eastwest;whiteSpace=wrap;html=1;" vertex="1" parent="-Scuf54vddxRZD9NTPhX-69">
          <mxGeometry y="98" width="160" height="132" as="geometry" />
        </mxCell>
        <mxCell id="-Scuf54vddxRZD9NTPhX-112" style="edgeStyle=orthogonalEdgeStyle;rounded=0;orthogonalLoop=1;jettySize=auto;html=1;exitX=0.5;exitY=0;exitDx=0;exitDy=0;entryX=0.5;entryY=1;entryDx=0;entryDy=0;endArrow=block;endFill=0;" edge="1" parent="WIyWlLk6GJQsqaUBKTNV-1" source="-Scuf54vddxRZD9NTPhX-93" target="-Scuf54vddxRZD9NTPhX-106">
          <mxGeometry relative="1" as="geometry" />
        </mxCell>
        <mxCell id="-Scuf54vddxRZD9NTPhX-93" value="carViewReactToButtons" style="swimlane;fontStyle=1;align=center;verticalAlign=top;childLayout=stackLayout;horizontal=1;startSize=26;horizontalStack=0;resizeParent=1;resizeParentMax=0;resizeLast=0;collapsible=1;marginBottom=0;whiteSpace=wrap;html=1;" vertex="1" parent="WIyWlLk6GJQsqaUBKTNV-1">
          <mxGeometry x="790" y="190" width="160" height="230" as="geometry" />
        </mxCell>
        <mxCell id="-Scuf54vddxRZD9NTPhX-94" value="- X: static final int&lt;br style=&quot;border-color: var(--border-color);&quot;&gt;- Y: static final int&lt;br style=&quot;border-color: var(--border-color);&quot;&gt;- carC: controlPanel&lt;br&gt;-&amp;nbsp; gasAmount: int&amp;nbsp;" style="text;strokeColor=none;fillColor=none;align=left;verticalAlign=top;spacingLeft=4;spacingRight=4;overflow=hidden;rotatable=0;points=[[0,0.5],[1,0.5]];portConstraint=eastwest;whiteSpace=wrap;html=1;" vertex="1" parent="-Scuf54vddxRZD9NTPhX-93">
          <mxGeometry y="26" width="160" height="64" as="geometry" />
        </mxCell>
        <mxCell id="-Scuf54vddxRZD9NTPhX-95" value="" style="line;strokeWidth=1;fillColor=none;align=left;verticalAlign=middle;spacingTop=-1;spacingLeft=3;spacingRight=3;rotatable=0;labelPosition=right;points=[];portConstraint=eastwest;strokeColor=inherit;" vertex="1" parent="-Scuf54vddxRZD9NTPhX-93">
          <mxGeometry y="90" width="160" height="8" as="geometry" />
        </mxCell>
        <mxCell id="-Scuf54vddxRZD9NTPhX-96" value="- initComponents(String title): void&lt;br&gt;+&lt;br&gt;+ stateChanged (ChangeEvent e): void&lt;br&gt;+ actionPerformed (ActionEvent e): void&lt;br&gt;" style="text;strokeColor=none;fillColor=none;align=left;verticalAlign=top;spacingLeft=4;spacingRight=4;overflow=hidden;rotatable=0;points=[[0,0.5],[1,0.5]];portConstraint=eastwest;whiteSpace=wrap;html=1;" vertex="1" parent="-Scuf54vddxRZD9NTPhX-93">
          <mxGeometry y="98" width="160" height="132" as="geometry" />
        </mxCell>
        <mxCell id="-Scuf54vddxRZD9NTPhX-97" style="edgeStyle=orthogonalEdgeStyle;rounded=0;orthogonalLoop=1;jettySize=auto;html=1;exitX=0.5;exitY=0;exitDx=0;exitDy=0;entryX=1;entryY=0.5;entryDx=0;entryDy=0;dashed=1;endArrow=open;endFill=0;" edge="1" parent="WIyWlLk6GJQsqaUBKTNV-1" source="-Scuf54vddxRZD9NTPhX-93">
          <mxGeometry relative="1" as="geometry">
            <mxPoint x="857" y="248" as="sourcePoint" />
            <mxPoint x="419.9999999999998" y="320" as="targetPoint" />
            <Array as="points">
              <mxPoint x="857" y="190" />
              <mxPoint x="857" y="140" />
              <mxPoint x="590" y="140" />
              <mxPoint x="590" y="320" />
            </Array>
          </mxGeometry>
        </mxCell>
        <mxCell id="-Scuf54vddxRZD9NTPhX-102" style="edgeStyle=orthogonalEdgeStyle;rounded=0;orthogonalLoop=1;jettySize=auto;html=1;exitX=0.5;exitY=0;exitDx=0;exitDy=0;entryX=1.009;entryY=0.471;entryDx=0;entryDy=0;dashed=1;endArrow=open;endFill=0;entryPerimeter=0;" edge="1" parent="WIyWlLk6GJQsqaUBKTNV-1" source="PPLYrk64f-NC93bYanYv-5" target="zkfFHV4jXpPFQw0GAbJ--2">
          <mxGeometry relative="1" as="geometry">
            <mxPoint x="957" y="228" as="sourcePoint" />
            <mxPoint x="520" y="300" as="targetPoint" />
            <Array as="points">
              <mxPoint x="1140" y="120" />
              <mxPoint x="540" y="120" />
              <mxPoint x="540" y="310" />
              <mxPoint x="391" y="310" />
            </Array>
          </mxGeometry>
        </mxCell>
        <mxCell id="-Scuf54vddxRZD9NTPhX-104" value="ArrayList" style="html=1;whiteSpace=wrap;" vertex="1" parent="WIyWlLk6GJQsqaUBKTNV-1">
          <mxGeometry x="230" y="-100" width="110" height="50" as="geometry" />
        </mxCell>
        <mxCell id="-Scuf54vddxRZD9NTPhX-105" value="Graphics" style="html=1;whiteSpace=wrap;" vertex="1" parent="WIyWlLk6GJQsqaUBKTNV-1">
          <mxGeometry x="1080" y="-99" width="110" height="50" as="geometry" />
        </mxCell>
        <mxCell id="-Scuf54vddxRZD9NTPhX-106" value="JFrame" style="html=1;whiteSpace=wrap;" vertex="1" parent="WIyWlLk6GJQsqaUBKTNV-1">
          <mxGeometry x="810" y="-98" width="110" height="50" as="geometry" />
        </mxCell>
        <mxCell id="-Scuf54vddxRZD9NTPhX-107" value="Point" style="html=1;whiteSpace=wrap;" vertex="1" parent="WIyWlLk6GJQsqaUBKTNV-1">
          <mxGeometry x="510" y="-97" width="110" height="50" as="geometry" />
        </mxCell>
        <mxCell id="-Scuf54vddxRZD9NTPhX-109" value="Use" style="endArrow=open;endSize=12;dashed=1;html=1;rounded=0;exitX=0.5;exitY=0;exitDx=0;exitDy=0;entryX=0.5;entryY=1;entryDx=0;entryDy=0;" edge="1" parent="WIyWlLk6GJQsqaUBKTNV-1" source="PPLYrk64f-NC93bYanYv-0" target="-Scuf54vddxRZD9NTPhX-105">
          <mxGeometry width="160" relative="1" as="geometry">
            <mxPoint x="1350" y="147.24" as="sourcePoint" />
            <mxPoint x="1352.6" y="-90" as="targetPoint" />
          </mxGeometry>
        </mxCell>
        <mxCell id="-Scuf54vddxRZD9NTPhX-110" value="Use" style="endArrow=open;endSize=12;dashed=1;html=1;rounded=0;exitX=0.5;exitY=0;exitDx=0;exitDy=0;entryX=0.5;entryY=1;entryDx=0;entryDy=0;" edge="1" parent="WIyWlLk6GJQsqaUBKTNV-1" source="PPLYrk64f-NC93bYanYv-5" target="-Scuf54vddxRZD9NTPhX-104">
          <mxGeometry width="160" relative="1" as="geometry">
            <mxPoint x="1160" y="100" as="sourcePoint" />
            <mxPoint x="550" y="20" as="targetPoint" />
          </mxGeometry>
        </mxCell>
        <mxCell id="-Scuf54vddxRZD9NTPhX-111" value="Use" style="endArrow=open;endSize=12;dashed=1;html=1;rounded=0;exitX=0.5;exitY=0;exitDx=0;exitDy=0;entryX=0.5;entryY=1;entryDx=0;entryDy=0;" edge="1" parent="WIyWlLk6GJQsqaUBKTNV-1" source="PPLYrk64f-NC93bYanYv-5" target="-Scuf54vddxRZD9NTPhX-107">
          <mxGeometry width="160" relative="1" as="geometry">
            <mxPoint x="1375" y="215" as="sourcePoint" />
            <mxPoint x="500" y="-25" as="targetPoint" />
          </mxGeometry>
        </mxCell>
        <mxCell id="-Scuf54vddxRZD9NTPhX-113" value="Use" style="endArrow=open;endSize=12;dashed=1;html=1;rounded=0;exitX=0.5;exitY=0;exitDx=0;exitDy=0;entryX=0.5;entryY=1;entryDx=0;entryDy=0;" edge="1" parent="WIyWlLk6GJQsqaUBKTNV-1" source="-Scuf54vddxRZD9NTPhX-64" target="-Scuf54vddxRZD9NTPhX-104">
          <mxGeometry width="160" relative="1" as="geometry">
            <mxPoint x="-360" y="70" as="sourcePoint" />
            <mxPoint x="270" y="-30" as="targetPoint" />
          </mxGeometry>
        </mxCell>
        <mxCell id="-Scuf54vddxRZD9NTPhX-114" value="Use" style="endArrow=open;endSize=12;dashed=1;html=1;rounded=0;exitX=0.5;exitY=0;exitDx=0;exitDy=0;entryX=0.5;entryY=1;entryDx=0;entryDy=0;" edge="1" parent="WIyWlLk6GJQsqaUBKTNV-1" source="-Scuf54vddxRZD9NTPhX-9" target="-Scuf54vddxRZD9NTPhX-104">
          <mxGeometry width="160" relative="1" as="geometry">
            <mxPoint x="40" y="470" as="sourcePoint" />
            <mxPoint x="200" y="470" as="targetPoint" />
          </mxGeometry>
        </mxCell>
        <mxCell id="-Scuf54vddxRZD9NTPhX-115" value="Use" style="endArrow=open;endSize=12;dashed=1;html=1;rounded=0;exitX=0.5;exitY=0;exitDx=0;exitDy=0;entryX=0.5;entryY=1;entryDx=0;entryDy=0;" edge="1" parent="WIyWlLk6GJQsqaUBKTNV-1" source="-Scuf54vddxRZD9NTPhX-69" target="-Scuf54vddxRZD9NTPhX-104">
          <mxGeometry width="160" relative="1" as="geometry">
            <mxPoint x="510" y="90" as="sourcePoint" />
            <mxPoint x="670" y="90" as="targetPoint" />
          </mxGeometry>
        </mxCell>
        <mxCell id="-Scuf54vddxRZD9NTPhX-116" value="Use" style="endArrow=open;endSize=12;dashed=1;html=1;rounded=0;exitX=0.521;exitY=1.013;exitDx=0;exitDy=0;exitPerimeter=0;entryX=0.5;entryY=1;entryDx=0;entryDy=0;" edge="1" parent="WIyWlLk6GJQsqaUBKTNV-1" source="-Scuf54vddxRZD9NTPhX-72" target="-Scuf54vddxRZD9NTPhX-58">
          <mxGeometry width="160" relative="1" as="geometry">
            <mxPoint x="680" y="470" as="sourcePoint" />
            <mxPoint x="840" y="470" as="targetPoint" />
          </mxGeometry>
        </mxCell>
        <mxCell id="-Scuf54vddxRZD9NTPhX-117" value="Use" style="endArrow=open;endSize=12;dashed=1;html=1;rounded=0;exitX=0.528;exitY=1.013;exitDx=0;exitDy=0;exitPerimeter=0;entryX=0.472;entryY=1.076;entryDx=0;entryDy=0;entryPerimeter=0;" edge="1" parent="WIyWlLk6GJQsqaUBKTNV-1" source="-Scuf54vddxRZD9NTPhX-72" target="-Scuf54vddxRZD9NTPhX-3">
          <mxGeometry width="160" relative="1" as="geometry">
            <mxPoint x="590" y="660" as="sourcePoint" />
            <mxPoint x="750" y="660" as="targetPoint" />
          </mxGeometry>
        </mxCell>
        <mxCell id="-Scuf54vddxRZD9NTPhX-119" value="Carrier" style="swimlane;fontStyle=1;align=center;verticalAlign=top;childLayout=stackLayout;horizontal=1;startSize=26;horizontalStack=0;resizeParent=1;resizeParentMax=0;resizeLast=0;collapsible=1;marginBottom=0;whiteSpace=wrap;html=1;" vertex="1" parent="WIyWlLk6GJQsqaUBKTNV-1">
          <mxGeometry x="-300" y="780" width="160" height="70" as="geometry" />
        </mxCell>
        <mxCell id="-Scuf54vddxRZD9NTPhX-122" value="+ carrierhigher(): void&amp;nbsp;&lt;br&gt;+ carrierlower(): void" style="text;strokeColor=none;fillColor=none;align=left;verticalAlign=top;spacingLeft=4;spacingRight=4;overflow=hidden;rotatable=0;points=[[0,0.5],[1,0.5]];portConstraint=eastwest;whiteSpace=wrap;html=1;" vertex="1" parent="-Scuf54vddxRZD9NTPhX-119">
          <mxGeometry y="26" width="160" height="44" as="geometry" />
        </mxCell>
        <mxCell id="-Scuf54vddxRZD9NTPhX-125" style="edgeStyle=orthogonalEdgeStyle;rounded=0;orthogonalLoop=1;jettySize=auto;html=1;exitX=1;exitY=0.5;exitDx=0;exitDy=0;entryX=0;entryY=0.5;entryDx=0;entryDy=0;endArrow=open;endFill=0;" edge="1" parent="WIyWlLk6GJQsqaUBKTNV-1" source="-Scuf54vddxRZD9NTPhX-1" target="-Scuf54vddxRZD9NTPhX-122">
          <mxGeometry relative="1" as="geometry" />
        </mxCell>
        <mxCell id="-Scuf54vddxRZD9NTPhX-128" style="edgeStyle=orthogonalEdgeStyle;rounded=0;orthogonalLoop=1;jettySize=auto;html=1;exitX=0;exitY=0.5;exitDx=0;exitDy=0;entryX=1;entryY=0.5;entryDx=0;entryDy=0;endArrow=open;endFill=0;" edge="1" parent="WIyWlLk6GJQsqaUBKTNV-1" source="-Scuf54vddxRZD9NTPhX-10" target="-Scuf54vddxRZD9NTPhX-122">
          <mxGeometry relative="1" as="geometry">
            <mxPoint x="-130" y="810" as="targetPoint" />
          </mxGeometry>
        </mxCell>
        <mxCell id="PPLYrk64f-NC93bYanYv-0" value="drawUppdatePanel" style="swimlane;fontStyle=1;align=center;verticalAlign=top;childLayout=stackLayout;horizontal=1;startSize=26;horizontalStack=0;resizeParent=1;resizeParentMax=0;resizeLast=0;collapsible=1;marginBottom=0;whiteSpace=wrap;html=1;" vertex="1" parent="WIyWlLk6GJQsqaUBKTNV-1">
          <mxGeometry x="1390" y="192" width="160" height="98" as="geometry" />
        </mxCell>
        <mxCell id="PPLYrk64f-NC93bYanYv-3" value="- movit(int i, int x, int y): void&lt;br&gt;# paintComponent(graphics g): void" style="text;strokeColor=none;fillColor=none;align=left;verticalAlign=top;spacingLeft=4;spacingRight=4;overflow=hidden;rotatable=0;points=[[0,0.5],[1,0.5]];portConstraint=eastwest;whiteSpace=wrap;html=1;" vertex="1" parent="PPLYrk64f-NC93bYanYv-0">
          <mxGeometry y="26" width="160" height="72" as="geometry" />
        </mxCell>
        <mxCell id="PPLYrk64f-NC93bYanYv-4" style="edgeStyle=orthogonalEdgeStyle;rounded=0;orthogonalLoop=1;jettySize=auto;html=1;exitX=1;exitY=0.5;exitDx=0;exitDy=0;entryX=0.002;entryY=0.382;entryDx=0;entryDy=0;endArrow=open;endFill=0;entryPerimeter=0;" edge="1" parent="WIyWlLk6GJQsqaUBKTNV-1" source="PPLYrk64f-NC93bYanYv-6" target="PPLYrk64f-NC93bYanYv-3">
          <mxGeometry relative="1" as="geometry">
            <mxPoint x="1241" y="361.1400000000002" as="targetPoint" />
            <mxPoint x="1298.6" y="346.86" as="sourcePoint" />
          </mxGeometry>
        </mxCell>
        <mxCell id="PPLYrk64f-NC93bYanYv-5" value="drawStartPanel" style="swimlane;fontStyle=1;align=center;verticalAlign=top;childLayout=stackLayout;horizontal=1;startSize=26;horizontalStack=0;resizeParent=1;resizeParentMax=0;resizeLast=0;collapsible=1;marginBottom=0;whiteSpace=wrap;html=1;" vertex="1" parent="WIyWlLk6GJQsqaUBKTNV-1">
          <mxGeometry x="1170" y="190" width="160" height="144" as="geometry" />
        </mxCell>
        <mxCell id="PPLYrk64f-NC93bYanYv-6" value="- Images: ArrayList()&lt;br style=&quot;border-color: var(--border-color);&quot;&gt;- Points: Arraylist&amp;lt;&amp;gt;()&lt;br style=&quot;border-color: var(--border-color);&quot;&gt;- point0: Point&lt;br style=&quot;border-color: var(--border-color);&quot;&gt;- point1: Point&lt;br style=&quot;border-color: var(--border-color);&quot;&gt;- point2: Point" style="text;strokeColor=none;fillColor=none;align=left;verticalAlign=top;spacingLeft=4;spacingRight=4;overflow=hidden;rotatable=0;points=[[0,0.5],[1,0.5]];portConstraint=eastwest;whiteSpace=wrap;html=1;" vertex="1" parent="PPLYrk64f-NC93bYanYv-5">
          <mxGeometry y="26" width="160" height="84" as="geometry" />
        </mxCell>
        <mxCell id="PPLYrk64f-NC93bYanYv-7" value="" style="line;strokeWidth=1;fillColor=none;align=left;verticalAlign=middle;spacingTop=-1;spacingLeft=3;spacingRight=3;rotatable=0;labelPosition=right;points=[];portConstraint=eastwest;strokeColor=inherit;" vertex="1" parent="PPLYrk64f-NC93bYanYv-5">
          <mxGeometry y="110" width="160" height="8" as="geometry" />
        </mxCell>
        <mxCell id="PPLYrk64f-NC93bYanYv-8" value="+ DrawPanel(int x, int y):" style="text;strokeColor=none;fillColor=none;align=left;verticalAlign=top;spacingLeft=4;spacingRight=4;overflow=hidden;rotatable=0;points=[[0,0.5],[1,0.5]];portConstraint=eastwest;whiteSpace=wrap;html=1;" vertex="1" parent="PPLYrk64f-NC93bYanYv-5">
          <mxGeometry y="118" width="160" height="26" as="geometry" />
        </mxCell>
        <mxCell id="PPLYrk64f-NC93bYanYv-9" value="carViewMakeButtons" style="swimlane;fontStyle=1;align=center;verticalAlign=top;childLayout=stackLayout;horizontal=1;startSize=26;horizontalStack=0;resizeParent=1;resizeParentMax=0;resizeLast=0;collapsible=1;marginBottom=0;whiteSpace=wrap;html=1;" vertex="1" parent="WIyWlLk6GJQsqaUBKTNV-1">
          <mxGeometry x="990" y="209" width="160" height="190" as="geometry" />
        </mxCell>
        <mxCell id="PPLYrk64f-NC93bYanYv-10" value="+ field: type&lt;br&gt;- gasLabel: JLabel&lt;br&gt;- gasButton: JButton&lt;br&gt;- brakeButton: JButton&lt;br&gt;- turboOnButton: JButton&lt;br&gt;- turboOffButton: JButton&lt;br&gt;- liftBedButton: JButton&lt;br&gt;- lowerBedButton: JButton&lt;br&gt;- startButton: JButton&lt;br&gt;- stopButton: JButton" style="text;strokeColor=none;fillColor=none;align=left;verticalAlign=top;spacingLeft=4;spacingRight=4;overflow=hidden;rotatable=0;points=[[0,0.5],[1,0.5]];portConstraint=eastwest;whiteSpace=wrap;html=1;" vertex="1" parent="PPLYrk64f-NC93bYanYv-9">
          <mxGeometry y="26" width="160" height="164" as="geometry" />
        </mxCell>
        <mxCell id="PPLYrk64f-NC93bYanYv-14" value="Move" style="swimlane;fontStyle=0;childLayout=stackLayout;horizontal=1;startSize=26;fillColor=none;horizontalStack=0;resizeParent=1;resizeParentMax=0;resizeLast=0;collapsible=1;marginBottom=0;whiteSpace=wrap;html=1;" vertex="1" parent="WIyWlLk6GJQsqaUBKTNV-1">
          <mxGeometry x="20" y="160" width="140" height="80" as="geometry" />
        </mxCell>
        <mxCell id="PPLYrk64f-NC93bYanYv-15" value="+ move(): void&lt;br style=&quot;border-color: var(--border-color); padding: 0px; margin: 0px;&quot;&gt;&lt;span style=&quot;&quot;&gt;+ turnleft(): void&lt;/span&gt;&lt;br style=&quot;border-color: var(--border-color); padding: 0px; margin: 0px;&quot;&gt;&lt;span style=&quot;&quot;&gt;+ turnright(): void&lt;/span&gt;" style="text;strokeColor=none;fillColor=none;align=left;verticalAlign=top;spacingLeft=4;spacingRight=4;overflow=hidden;rotatable=0;points=[[0,0.5],[1,0.5]];portConstraint=eastwest;whiteSpace=wrap;html=1;" vertex="1" parent="PPLYrk64f-NC93bYanYv-14">
          <mxGeometry y="26" width="140" height="54" as="geometry" />
        </mxCell>
        <mxCell id="PPLYrk64f-NC93bYanYv-18" style="edgeStyle=orthogonalEdgeStyle;rounded=0;orthogonalLoop=1;jettySize=auto;html=1;exitX=1.019;exitY=0.403;exitDx=0;exitDy=0;entryX=0.009;entryY=0.22;entryDx=0;entryDy=0;endArrow=open;endFill=0;exitPerimeter=0;entryPerimeter=0;" edge="1" parent="WIyWlLk6GJQsqaUBKTNV-1" source="PPLYrk64f-NC93bYanYv-15" target="zkfFHV4jXpPFQw0GAbJ--2">
          <mxGeometry relative="1" as="geometry">
            <mxPoint x="190.15999999999997" y="216.53" as="targetPoint" />
            <mxPoint x="170.0000000000001" y="192.00199999999998" as="sourcePoint" />
          </mxGeometry>
        </mxCell>
        <mxCell id="6XpyEbol8hKaLd52ao3X-1" style="edgeStyle=orthogonalEdgeStyle;rounded=0;orthogonalLoop=1;jettySize=auto;html=1;exitX=1;exitY=0.5;exitDx=0;exitDy=0;entryX=0.005;entryY=0.229;entryDx=0;entryDy=0;entryPerimeter=0;endArrow=open;endFill=0;" edge="1" parent="WIyWlLk6GJQsqaUBKTNV-1" source="-Scuf54vddxRZD9NTPhX-94" target="PPLYrk64f-NC93bYanYv-10">
          <mxGeometry relative="1" as="geometry" />
        </mxCell>
      </root>
    </mxGraphModel>
  </diagram>
</mxfile>
